<?xml version="1.0" encoding="utf-8"?>
<!-- Generator: Adobe Illustrator 20.0.0, SVG Export Plug-In . SVG Version: 6.00 Build 0)  -->
<svg version="1.1" id="Layer_1" xmlns="http://www.w3.org/2000/svg" xmlns:xlink="http://www.w3.org/1999/xlink" x="0px" y="0px"
	 viewBox="0 0 100 100" style="enable-background:new 0 0 100 100;" xml:space="preserve">
<style type="text/css">
	.st0{fill:none;stroke:#FFFFFF;stroke-miterlimit:10;}
	.st1{fill:#FFFFFF;}
</style>
<g>
	<path class="st0" d="M22.2,30.3c0-2.1,0-4.1,0-6.1c0-1.7-0.4-2.5-2-2.8c-4.2-0.7-8.5-1.4-12.8-2c-1.6-0.2-3.2,0.3-4.6,1.2
		c-0.8,0.6-0.9,1.2-0.1,1.8c0.5,0.4,1.1,0.7,1.7,1.1c1.1,0.7,2.3,1.4,3.4,2.2c1.6,1.1,2.3,2.7,2.4,4.7c0.2,7.5,0.5,14.9,0.9,22.4
		c0.1,2.3,0.7,4.6,1.2,6.9c0.3,1.4,1.2,2.6,2.9,2.7c1.3,0.1,2.5-0.3,3.5-1.2c1.5-1.3,2.2-3,2.7-4.9c5.8-0.4,11.5-0.8,17.3-1.3
		c0.8-0.1,1.1,0.1,1.4,0.9c1.3,3,4,3.7,6.7,2c1.3-0.8,2.1-2.1,2.7-3.5c1.2-2.8,1.5-5.7,1.6-8.7c0.3-8.5,0.5-17,0.7-25.5
		c0-2-0.5-3-2.4-3.5c-3.4-1-6.9-2-10.4-2.9c-2-0.5-4.1-0.3-6,0.6c-1.6,0.7-1.6,1.5-0.2,2.5c1.4,1,2.8,1.9,4.1,3
		c0.9,0.8,1.9,1.8,2,2.9c0.3,2.2,0.1,4.5,0.1,6.7c-5.5,0.2-11,0.4-16.5,0.6C22.5,30.3,22.3,30.3,22.2,30.3z M62.5,62.6
		c0.7-2.4,0.3-3.9-1.8-4.9c-1.4-0.7-3-1.2-4.6-1.4c-1.9-0.3-2.4,0.5-1.6,2.2c0.9,1.9-0.1,3.7-2.2,4c-3.5,0.6-6.8,1.7-9.9,3.5
		c-6.8,4-9.3,11.5-7.2,18.4c1.8,5.9,6,9.7,11.5,12.2c5.8,2.6,11.8,2.7,17.9,1.1C71.3,96,76.1,92,78.1,85.2c1.2-4,1.4-8-0.5-12
		c-1.5-3.3-4.1-5.7-7.3-7.4C67.8,64.6,65.2,63.7,62.5,62.6z M78.5,36.5c0-0.3,0-0.5,0-0.7c0.3-9.1-0.4-18.2,0.9-27.3
		c0.2-1.4-0.4-2.3-1.5-3C77.5,5.3,77,5,76.6,4.9c-4.9-1.7-10-2.8-15.2-3.5c-1.5-0.2-2.9-0.2-4.2,0.7c-1.1,0.7-1.2,1.4-0.1,2.3
		c1,0.8,2.2,1.5,3.2,2.3c3.1,2.5,5.4,5.5,5.5,9.7c0.1,4.8,0.1,9.7,0.2,14.5c0.2,7.5,0.3,15.1,0.7,22.6c0.1,2,0.7,4.1,1.4,6
		c0.7,1.9,1.9,2.4,3.9,1.9c2.2-0.5,3.5-2,4.5-3.8c1.3-2.6,1.8-5.4,2-8.2c0.2-1.6,0.2-3.3,0.3-5c0.4,0,0.7-0.1,1.1-0.1
		c4.4-0.2,8.8-0.4,13.2-0.7c3.4-0.2,5.3-2.3,5-5.7c0-0.2,0-0.5-0.1-0.7c-0.2-1.8-1-3.3-2.9-3.6c-1.8-0.4-3.6-0.4-5.4-0.5
		c-2.2-0.1-4.1,0.6-5.8,2.1C82.2,36.5,80.4,36.8,78.5,36.5z"/>
	<g>
		<path d="M15.7,63.6c-0.2,0-0.3,0-0.5,0c-1.3-0.1-3-0.7-3.8-3.4c-0.6-2.1-1.1-4.6-1.2-7.1c-0.3-5-0.5-10.1-0.6-15
			c-0.1-2.5-0.2-4.9-0.3-7.4c-0.1-1.8-0.7-3.1-2-3.9c-0.8-0.6-1.6-1.1-2.4-1.6c-0.3-0.2-0.6-0.4-0.9-0.6c-0.3-0.2-0.6-0.4-0.9-0.6
			c-0.3-0.2-0.6-0.4-0.9-0.6c-1-0.7-1.1-1.5-1-1.9c0-0.4,0.2-1.1,1.1-1.6c1.3-0.9,2.8-1.4,4.2-1.4c0.4,0,0.8,0,1.1,0.1
			c3.8,0.5,7.4,1.1,11.2,1.7l1.5,0.3c2.4,0.4,2.8,1.8,2.8,3.8c-0.1,1.5-0.1,3.2-0.1,4.9l14.9-0.5c0-0.3,0-0.7,0-1
			c0-1.6,0.1-3.1-0.1-4.6c-0.1-0.7-1.1-1.7-1.7-2.3c-0.8-0.7-1.7-1.3-2.7-2c-0.4-0.3-0.9-0.6-1.3-0.9c-0.4-0.3-1.6-1.1-1.4-2.3
			c0.1-1.2,1.4-1.7,1.8-1.9c1.3-0.6,2.7-1,4.2-1c0.8,0,1.6,0.1,2.4,0.3c2.9,0.7,5.6,1.5,8.5,2.4l1.9,0.5c2.3,0.7,3.2,2,3.1,4.5
			c-0.2,8.3-0.4,17-0.7,25.5c-0.1,3.6-0.6,6.4-1.7,9c-0.8,1.8-1.7,3-3.1,4C46.3,59.7,45.1,60,44,60c-2.1,0-3.8-1.2-4.7-3.5
			c-0.1-0.3-0.1-0.3-0.5-0.3c-2.8,0.2-5.7,0.4-8.6,0.6c-2.6,0.2-5.3,0.4-7.9,0.6c-0.5,1.6-1.2,3.3-2.8,4.7
			C18.4,63.1,17.1,63.6,15.7,63.6z M23.2,47.6c5.1-0.4,10-0.7,14.9-1v-9.1c-4.9,0.3-14.9,0.8-14.9,0.8V47.6z"/>
		<path class="st1" d="M36.9,13.7c0.7,0,1.5,0.1,2.2,0.3c3.5,0.9,6.9,1.9,10.4,2.9c1.9,0.6,2.5,1.5,2.4,3.5
			c-0.2,8.5-0.4,17-0.7,25.5c-0.1,3-0.5,5.9-1.6,8.7c-0.6,1.4-1.4,2.6-2.7,3.5c-1,0.6-2,0.9-2.9,0.9c-1.6,0-3-1-3.8-2.9
			c-0.3-0.7-0.7-0.9-1.4-0.9c-5.8,0.4-11.5,0.9-17.3,1.3c-0.5,1.9-1.2,3.6-2.7,4.9c-0.9,0.8-2,1.2-3.1,1.2c-0.1,0-0.3,0-0.4,0
			c-1.7-0.1-2.5-1.3-2.9-2.7c-0.6-2.3-1.1-4.6-1.2-6.9c-0.4-7.5-0.6-14.9-0.9-22.4c-0.1-2-0.8-3.6-2.4-4.7c-1.1-0.8-2.3-1.5-3.4-2.2
			c-0.6-0.4-1.1-0.7-1.7-1.1C2,22,2,21.3,2.9,20.8C4,20,5.3,19.5,6.6,19.5c0.3,0,0.6,0,0.9,0.1c4.3,0.6,8.5,1.3,12.8,2
			c1.6,0.3,2,1,2,2.8c-0.1,1.8-0.1,3.8-0.1,5.9c0.1,0,0.3,0,0.4,0c5.5-0.2,10.9-0.4,16.5-0.6c0-2.3,0.2-4.5-0.1-6.7
			c-0.1-1-1.2-2.1-2-2.9c-1.2-1.1-2.7-2-4.1-3c-1.4-1-1.4-1.8,0.2-2.5C34.3,14,35.6,13.7,36.9,13.7 M22.2,48.7
			c5.7-0.4,11.3-0.8,16.9-1.1c0-3.7,0-7.3,0-11.1c-5.7,0.3-11.3,0.6-16.9,0.9C22.2,41.2,22.2,45,22.2,48.7 M36.9,11.7
			c-1.6,0-3.1,0.4-4.6,1c-1.5,0.6-2.3,1.6-2.4,2.7c-0.1,1.2,0.5,2.3,1.8,3.2c0.4,0.3,0.9,0.6,1.3,0.9c1,0.6,1.9,1.3,2.6,1.9
			c0.4,0.4,1.3,1.3,1.4,1.7c0.2,1.4,0.2,2.9,0.1,4.4c0,0,0,0.1,0,0.1C34.1,27.9,31,28,28,28.1l-3.8,0.1c0-1.3,0-2.6,0.1-3.7l0-0.1
			v-0.1c0-1.9-0.4-4.2-3.6-4.8L19,19.4c-3.8-0.6-7.4-1.2-11.2-1.7c-0.4-0.1-0.8-0.1-1.3-0.1c-1.6,0-3.2,0.6-4.7,1.6
			c-1.3,0.8-1.6,1.8-1.6,2.4c0,0.6,0.1,1.7,1.4,2.7l0,0l0,0c0.3,0.2,0.6,0.4,0.9,0.6c0.3,0.2,0.5,0.3,0.8,0.5c0.3,0.2,0.7,0.4,1,0.6
			c0.8,0.5,1.6,1,2.3,1.5l0,0l0,0c1,0.7,1.5,1.7,1.5,3.2c0.1,2.4,0.2,4.9,0.3,7.4c0.2,4.9,0.4,10,0.6,15.1c0.1,2.6,0.7,5.1,1.3,7.3
			c1,3.5,3.4,4.1,4.7,4.2c0.1,0,0.3,0,0.5,0c1.7,0,3.2-0.6,4.5-1.7c1.5-1.3,2.4-3,2.9-4.5c2.5-0.2,4.9-0.4,7.3-0.6
			c2.7-0.2,5.5-0.4,8.2-0.6c1.2,2.4,3.2,3.8,5.5,3.8c1.3,0,2.6-0.4,3.9-1.2l0.1,0l0,0c1.5-1,2.6-2.4,3.4-4.4l0,0l0,0
			c1.1-2.7,1.6-5.7,1.7-9.4c0.3-8.5,0.5-17.1,0.7-25.5c0.1-2.9-1-4.6-3.8-5.5l0,0l0,0l-1.9-0.5c-2.8-0.8-5.7-1.6-8.5-2.4
			C38.7,11.8,37.8,11.7,36.9,11.7L36.9,11.7z M24.2,39.3c4.3-0.2,8.6-0.5,12.9-0.7v7.1c-4.3,0.2-8.5,0.5-12.9,0.8V39.3L24.2,39.3z"
			/>
	</g>
	<g>
		<path d="M56.9,99.8c-3.7,0-7.3-0.7-10.6-2.2c-6.4-2.9-10.3-7.1-12.1-12.8c-2.3-7.6,0.7-15.5,7.6-19.6c3.1-1.8,6.4-3,10.2-3.6
			c0.7-0.1,1.3-0.4,1.5-0.9c0.3-0.5,0.2-1.1-0.1-1.7c-0.6-1.3-0.6-2.2-0.2-2.9c0.3-0.4,0.8-0.9,1.8-0.9c0.3,0,0.7,0,1.1,0.1
			c1.4,0.3,3.2,0.7,4.8,1.5c2.8,1.2,2.9,3.3,2.5,5.1c0.4,0.2,0.9,0.4,1.3,0.5c2,0.8,3.9,1.5,5.7,2.5c3.6,1.8,6.2,4.5,7.8,7.9
			c1.7,3.7,1.9,7.7,0.6,12.7c-2,6.9-6.8,11.3-14.2,13.2C62.2,99.4,59.5,99.8,56.9,99.8z M56.8,70.6c-0.9,0.1-1.9,0.2-2.7,0.4
			c-0.7,0.2-1.5,0.5-2.2,0.8c-2.7,1.1-3.8,3.5-4.1,4.8c-0.6,2.2-0.4,4.5,0.7,6.1c2,2.9,5.6,4.8,9.1,4.8c0,0,0,0,0,0
			c0.7,0,1.4-0.1,2.1-0.2c2.4-0.5,4.4-1.9,5.5-4c1.2-2.1,1.4-4.5,0.5-6.9C64.5,73,61,70.6,57,70.6L56.8,70.6z"/>
		<path class="st1" d="M55.3,56.3c0.2,0,0.5,0,0.8,0.1c1.6,0.3,3.2,0.7,4.6,1.4c2.1,0.9,2.5,2.4,1.8,4.8c2.7,1.1,5.3,2,7.8,3.3
			c3.2,1.6,5.8,4,7.3,7.4c1.8,3.9,1.6,7.9,0.5,12c-2,6.8-6.8,10.8-13.5,12.5c-2.5,0.6-5.1,1-7.7,1c-3.5,0-6.9-0.6-10.2-2.1
			c-5.5-2.5-9.7-6.3-11.5-12.2c-2.1-6.9,0.4-14.4,7.2-18.4c3.1-1.8,6.4-2.9,9.9-3.5c2.1-0.3,3.1-2.1,2.2-4
			C53.8,57.1,54.1,56.3,55.3,56.3 M57.5,88.4c0.8,0,1.5-0.1,2.3-0.2c5.6-1.2,8.7-6.8,6.8-12.2c-1.3-3.8-5.3-6.4-9.6-6.4
			c-1,0.1-2.1,0.2-3.1,0.4c-0.8,0.2-1.6,0.5-2.4,0.8c-5.1,2.1-6.4,8.8-3.9,12.4C49.8,86.4,53.6,88.4,57.5,88.4 M55.3,54.3L55.3,54.3
			c-1.6,0-2.3,0.8-2.7,1.3c-1,1.5-0.2,3.2,0.1,3.8c0.2,0.4,0.2,0.6,0.1,0.8c-0.1,0.2-0.4,0.3-0.8,0.4l0,0l0,0
			c-3.9,0.7-7.4,1.9-10.6,3.7c-7.3,4.3-10.6,12.6-8.1,20.7c1.8,5.9,6,10.5,12.6,13.4c3.5,1.5,7.2,2.3,11.1,2.3c2.6,0,5.4-0.4,8.1-1
			C72.8,97.8,77.9,93,80,85.9c1.4-5.2,1.2-9.5-0.6-13.4c-1.6-3.6-4.4-6.4-8.2-8.4c-1.9-1-3.9-1.8-5.8-2.5c-0.2-0.1-0.4-0.2-0.6-0.2
			c0.2-2.5-0.8-4.3-3.2-5.4c-1.7-0.9-3.6-1.3-5.1-1.6C56.1,54.3,55.6,54.3,55.3,54.3L55.3,54.3z M54.3,72c0.8-0.2,1.7-0.2,2.6-0.3
			l0.1,0c3.4,0,6.6,2.1,7.6,5c0.7,2.1,0.6,4.2-0.5,6.1c-1,1.8-2.7,3.1-4.9,3.5c-0.6,0.1-1.2,0.2-1.8,0.2c-3.2,0-6.5-1.7-8.3-4.4
			c-0.9-1.3-1.1-3.4-0.6-5.3c0.3-1.1,1.2-3.2,3.6-4.2C53,72.4,53.7,72.1,54.3,72L54.3,72z"/>
	</g>
	<g>
		<path d="M70.6,62.6c-1.8,0-2.9-0.9-3.6-2.7c-0.9-2.4-1.4-4.5-1.5-6.3c-0.3-5.7-0.4-11.5-0.6-17.1c0-1.9-0.1-3.7-0.1-5.6
			c0-2.4-0.1-4.8-0.1-7.2c0-2.4,0-4.9-0.1-7.3c-0.1-3.3-1.7-6.2-5.1-8.9c-0.6-0.5-1.2-0.9-1.9-1.4c-0.4-0.3-0.8-0.6-1.2-0.9
			C56,5,55.1,4.3,55.1,3.3c0-1.1,1-1.8,1.3-2c1-0.7,2.1-1,3.4-1c0.5,0,0.9,0,1.5,0.1C67,1.2,72.1,2.3,76.7,4c0.6,0.2,1,0.4,1.4,0.7
			c1.6,0.8,2.3,2.2,2,4c-0.8,5.7-0.8,11.6-0.8,17.2c0,3.2,0,6.5-0.1,9.7c0.2,0,0.4,0,0.5,0c1.3,0,2.4-0.4,3.2-1.1
			c1.8-1.6,3.8-2.3,6-2.3c0.2,0,0.3,0,0.5,0c0.4,0,0.7,0,1.1,0.1c1.5,0.1,3,0.1,4.5,0.5c2.1,0.5,3.4,2.1,3.7,4.5l0,0.1
			c0,0.1,0,0.2,0,0.3l0.1,0.2l0,0.2c0.1,2-0.4,3.7-1.5,4.9c-1.1,1.1-2.6,1.8-4.5,1.8c-4.3,0.2-8.8,0.4-13.2,0.7c-0.1,0-0.2,0-0.2,0
			c0,0.3,0,0.5,0,0.8c0,1.1-0.1,2.2-0.2,3.4c-0.3,2.8-0.7,5.7-2.1,8.5c-0.9,1.6-2.3,3.8-5.2,4.3C71.5,62.6,71,62.6,70.6,62.6z"/>
		<path class="st1" d="M59.8,1.3c0.5,0,0.9,0,1.4,0.1c5.2,0.7,10.3,1.8,15.2,3.5c0.5,0.2,0.9,0.4,1.3,0.6c1.2,0.6,1.7,1.6,1.5,3
			c-1.3,9.1-0.5,18.2-0.9,27.3c0.1,0.2,0.2,0.4,0.2,0.7c0.4,0.1,0.9,0.1,1.3,0.1c1.4,0,2.8-0.4,3.9-1.3c1.6-1.4,3.4-2.1,5.4-2.1
			c0.1,0,0.3,0,0.4,0c1.8,0.1,3.7,0.1,5.4,0.5c1.8,0.4,2.7,1.8,2.9,3.6c0,0.2,0,0.5,0.1,0.7c0.2,3.4-1.6,5.6-5,5.7
			c-4.4,0.2-8.8,0.4-13.2,0.7c-0.3,0-0.7,0.1-1.1,0.1c-0.1,1.7-0.1,3.3-0.3,5c-0.3,2.8-0.7,5.6-2,8.2c-1,1.9-2.3,3.4-4.5,3.8
			c-0.5,0.1-0.9,0.1-1.2,0.1c-1.3,0-2.1-0.6-2.7-2c-0.7-1.9-1.3-4-1.4-6C66.1,46,66,38.5,65.8,30.9c-0.1-4.8-0.1-9.7-0.2-14.5
			c-0.1-4.2-2.4-7.2-5.5-9.7c-1-0.8-2.1-1.5-3.2-2.3c-1.1-0.8-1-1.5,0.1-2.3C57.9,1.5,58.8,1.3,59.8,1.3 M59.8-0.7L59.8-0.7
			c-1.5,0-2.8,0.4-3.9,1.2c-1.2,0.8-1.7,1.8-1.7,2.8c0,1,0.5,1.9,1.6,2.7c0.4,0.3,0.8,0.6,1.3,0.9c0.7,0.5,1.3,0.9,1.9,1.4
			c3.2,2.6,4.7,5.1,4.7,8.2c0,2.4,0.1,4.8,0.1,7.2c0,2.4,0.1,4.9,0.1,7.3c0,1.9,0.1,3.8,0.1,5.6c0.1,5.6,0.3,11.4,0.6,17.1
			c0.1,1.9,0.6,4.1,1.5,6.6c1,2.8,3,3.3,4.5,3.3c0.5,0,1-0.1,1.6-0.2c3.3-0.6,4.9-3,5.9-4.8c1.5-3,1.9-6,2.2-8.9
			c0.1-1.2,0.2-2.3,0.2-3.4c4.2-0.3,8.4-0.5,12.5-0.7c2.1-0.1,3.9-0.8,5.1-2.2c1.3-1.4,1.9-3.4,1.8-5.7l0-0.4l-0.1-0.1c0,0,0,0,0,0
			v-0.1l0-0.1c-0.3-2.8-1.9-4.8-4.5-5.3c-1.5-0.4-3.1-0.4-4.6-0.5c-0.4,0-0.7,0-1.1-0.1c-0.2,0-0.4,0-0.5,0c-2.5,0-4.8,0.9-6.7,2.6
			c-0.5,0.4-1.2,0.7-2,0.8c0.1-2.9,0.1-5.9,0.1-8.7c0-5.6,0-11.4,0.8-17.1c0.3-2.2-0.6-4.1-2.6-5.1c-0.4-0.2-0.9-0.4-1.5-0.7l0,0
			l0,0c-4.7-1.6-9.8-2.8-15.6-3.6C60.8-0.7,60.3-0.7,59.8-0.7L59.8-0.7z"/>
	</g>
</g>
</svg>
